<svg xmlns="http://www.w3.org/2000/svg" viewBox="0 0 128 128" style="enable-background:new 0 0 128 128" xml:space="preserve"><path d="M122.959 15.5H7.016C3.707 15.5 0 17.191 0 20.5v90a2 2 0 0 0 4 0v-3h120v3a2 2 0 0 0 4 0v-90c0-3.309-1.732-5-5.041-5zM23 96.5a2 2 0 0 1-4 0v-6a2 2 0 0 1 4 0v6zm0-21a2 2 0 0 1-4 0v-6a2 2 0 0 1 4 0v6zm0-23a2 2 0 0 1-4 0v-6a2 2 0 0 1 4 0v6zm0-22a2 2 0 0 1-4 0v-6a2 2 0 0 1 4 0v6zm25 66a2 2 0 0 1-4 0v-6a2 2 0 0 1 4 0v6zm0-21a2 2 0 0 1-4 0v-6a2 2 0 0 1 4 0v6zm0-23a2 2 0 0 1-4 0v-6a2 2 0 0 1 4 0v6zm0-22a2 2 0 0 1-4 0v-6a2 2 0 0 1 4 0v6zm76 73H54v-18h70v18zm0-22H54v-18h70v18zm0-22H54v-18h70v18zm0-39v17H54v-18h68.959c1.103 0 1.041-.103 1.041 1z"/></svg>