<svg id="visual" viewBox="0 0 960 540" width="960" height="540" xmlns="http://www.w3.org/2000/svg" xmlns:xlink="http://www.w3.org/1999/xlink" version="1.1"><path d="M0 435L11.5 435.2C23 435.3 46 435.7 68.8 436.2C91.7 436.7 114.3 437.3 137.2 439.3C160 441.3 183 444.7 205.8 445.8C228.7 447 251.3 446 274.2 444C297 442 320 439 342.8 438.8C365.7 438.7 388.3 441.3 411.2 444.7C434 448 457 452 480 446.7C503 441.3 526 426.7 548.8 420.5C571.7 414.3 594.3 416.7 617.2 424C640 431.3 663 443.7 685.8 446.8C708.7 450 731.3 444 754.2 440.3C777 436.7 800 435.3 822.8 434.2C845.7 433 868.3 432 891.2 433C914 434 937 437 948.5 438.5L960 440L960 541L948.5 541C937 541 914 541 891.2 541C868.3 541 845.7 541 822.8 541C800 541 777 541 754.2 541C731.3 541 708.7 541 685.8 541C663 541 640 541 617.2 541C594.3 541 571.7 541 548.8 541C526 541 503 541 480 541C457 541 434 541 411.2 541C388.3 541 365.7 541 342.8 541C320 541 297 541 274.2 541C251.3 541 228.7 541 205.8 541C183 541 160 541 137.2 541C114.3 541 91.7 541 68.8 541C46 541 23 541 11.5 541L0 541Z" fill="#333333"></path><path d="M0 509L11.5 503C23 497 46 485 68.8 478.5C91.7 472 114.3 471 137.2 474C160 477 183 484 205.8 483.5C228.7 483 251.3 475 274.2 474.3C297 473.7 320 480.3 342.8 486.5C365.7 492.7 388.3 498.3 411.2 499.8C434 501.3 457 498.7 480 496.2C503 493.7 526 491.3 548.8 487C571.7 482.7 594.3 476.3 617.2 473.7C640 471 663 472 685.8 475C708.7 478 731.3 483 754.2 488C777 493 800 498 822.8 496.2C845.7 494.3 868.3 485.7 891.2 479.3C914 473 937 469 948.5 467L960 465L960 541L948.5 541C937 541 914 541 891.2 541C868.3 541 845.7 541 822.8 541C800 541 777 541 754.2 541C731.3 541 708.7 541 685.8 541C663 541 640 541 617.2 541C594.3 541 571.7 541 548.8 541C526 541 503 541 480 541C457 541 434 541 411.2 541C388.3 541 365.7 541 342.8 541C320 541 297 541 274.2 541C251.3 541 228.7 541 205.8 541C183 541 160 541 137.2 541C114.3 541 91.7 541 68.8 541C46 541 23 541 11.5 541L0 541Z" fill="#222222"></path></svg>