<?xml version="1.0" encoding="UTF-8"?>
<svg width="800px" height="800px" viewBox="0 0 32 32" xmlns="http://www.w3.org/2000/svg">
    <defs>
        <clipPath id="a">
            <rect width="32" height="32"/>
        </clipPath>
    </defs>
    <g clip-path="url(#a)">
        <g transform="translate(-260 -104)" fill="#5DA3EA">
            <path d="M291.858,111.843a.979.979,0,0,0-.059-.257.882.882,0,0,0-.055-.14.951.951,0,0,0-.184-.231.766.766,0,0,0-.061-.077c-.006,0-.014,0-.02-.01a.986.986,0,0,0-.374-.18l-.008,0h0l-14.875-3.377a1.008,1.008,0,0,0-.444,0L260.9,110.944a.984.984,0,0,0-.382.184c-.006.005-.014.005-.02.01-.026.021-.038.054-.062.077a.971.971,0,0,0-.183.231.882.882,0,0,0-.055.14.979.979,0,0,0-.059.257c0,.026-.017.049-.017.076v16.162a1,1,0,0,0,.778.975l14.875,3.377a1,1,0,0,0,.444,0l14.875-3.377a1,1,0,0,0,.778-.975V111.919C291.875,111.892,291.86,111.869,291.858,111.843ZM276,114.27l-3.861-.877L282.328,111l4.029.915Zm-9.2-.038,3.527.8v5.335l-.568-.247a.5.5,0,0,0-.351-.018l-1.483.472-1.125-.836Zm9.2-4.664,4.1.931-10.19,2.389-4.269-.969Zm-13.875,3.6L265.8,114v5.985a.5.5,0,0,0,.2.4l1.532,1.139a.5.5,0,0,0,.3.1.485.485,0,0,0,.151-.023l1.549-.493,1.1.475a.5.5,0,0,0,.7-.459V115.26l3.674.833v14.112l-12.875-2.922Zm27.75,14.112L277,130.205V116.093l12.875-2.922Z"/>
            <path d="M278.841,127.452a.508.508,0,0,0,.11-.012l5.613-1.274a.5.5,0,0,0,.39-.488v-6.1a.5.5,0,0,0-.188-.39.5.5,0,0,0-.422-.1l-5.614,1.275a.5.5,0,0,0-.389.488v6.1a.5.5,0,0,0,.5.5Zm.5-6.2,4.613-1.047v5.074l-4.613,1.047Z"/>
            <path d="M280.688,123.093a.524.524,0,0,0,.111-.012l1.918-.435a.5.5,0,0,0-.221-.976l-1.918.435a.5.5,0,0,0,.11.988Z"/>
            <path d="M282.611,123.7l-2.029.44a.5.5,0,0,0,.106.989.492.492,0,0,0,.107-.011l2.029-.441a.5.5,0,0,0,.382-.594A.493.493,0,0,0,282.611,123.7Z"/>
        </g>
    </g>
</svg>