<svg width="150" height="148" viewBox="0 0 150 148" fill="none" xmlns="http://www.w3.org/2000/svg">
<path d="M114.406 106.78H104.237C102.831 106.78 101.695 105.643 101.695 104.237C101.695 102.831 102.831 101.695 104.237 101.695H114.406C115.812 101.695 116.949 102.831 116.949 104.237C116.949 105.643 115.812 106.78 114.406 106.78ZM114.406 116.949H104.237C103.903 116.949 103.572 116.884 103.264 116.756C102.955 116.629 102.675 116.441 102.439 116.205C102.202 115.969 102.015 115.689 101.887 115.38C101.76 115.071 101.694 114.741 101.695 114.407C101.694 114.073 101.76 113.742 101.887 113.433C102.015 113.125 102.202 112.844 102.439 112.608C102.675 112.372 102.955 112.185 103.264 112.057C103.572 111.93 103.903 111.864 104.237 111.864H114.406C114.74 111.864 115.071 111.93 115.38 112.057C115.688 112.185 115.969 112.372 116.205 112.608C116.441 112.844 116.628 113.125 116.756 113.433C116.884 113.742 116.949 114.073 116.949 114.407C116.949 114.741 116.884 115.071 116.756 115.38C116.628 115.689 116.441 115.969 116.205 116.205C115.969 116.441 115.688 116.629 115.38 116.756C115.071 116.884 114.74 116.949 114.406 116.949ZM114.406 127.119H104.237C102.831 127.119 101.695 125.982 101.695 124.576C101.695 123.17 102.831 122.034 104.237 122.034H114.406C115.812 122.034 116.949 123.17 116.949 124.576C116.949 125.982 115.812 127.119 114.406 127.119ZM43.2201 77.6069V68.0119C43.2201 64.1499 40.0879 61.0178 36.2234 61.0178H27.9661V99.1533H58.4747V90.893C58.4747 87.0311 55.3425 83.899 51.478 83.899H49.5127C46.0373 83.8993 43.2201 81.0824 43.2201 77.6069Z" fill="#777777"/>
<path d="M71.1865 0H20.3391V10.1695H71.1865C75 10.1695 81.0915 17.6569 86.0951 34.3881C91.162 51.3229 94.0679 74.0007 94.0679 114.407H104.237C104.237 49.1212 91.8762 0 71.1865 0Z" fill="#777777"/>
<path d="M26.0089 10.1696L16.9785 67.8126C17.4844 68.8348 17.797 69.9686 17.797 71.1864C17.797 73.2636 16.9606 75.1424 15.6132 76.5179L15.2546 78.8136H27.9666L30.0844 61.0169L36.2523 10.1696H26.0089Z" fill="#777777"/>
<path d="M35.5932 137.288C35.5932 131.672 31.0399 127.119 25.4237 127.119C19.8075 127.119 15.2542 131.672 15.2542 137.288C15.2542 142.904 19.8075 147.458 25.4237 147.458C31.0399 147.458 35.5932 142.904 35.5932 137.288ZM91.5253 137.288C91.5253 131.672 86.972 127.119 81.3558 127.119C75.7396 127.119 71.1863 131.672 71.1863 137.288C71.1863 142.904 75.7396 147.458 81.3558 147.458C86.972 147.458 91.5253 142.904 91.5253 137.288Z" fill="#777777"/>
<path d="M124.576 127.119V71.1864H114.407V137.288H150V127.119H124.576ZM10.1695 81.3559C4.56094 81.3559 0 76.795 0 71.1864C0 65.5778 4.56094 61.0168 10.1695 61.0168C15.7781 61.0168 20.3391 65.5778 20.3391 71.1864C20.3391 76.795 15.7778 81.3559 10.1695 81.3559Z" fill="#C0C0C0"/>
<path d="M27.9663 99.1527H2.54248V89.207C2.54248 83.4662 7.19512 78.8136 12.9358 78.8136H27.9663V99.1527Z" fill="#777777"/>
<path d="M2.54248 114.407V129.483C2.54248 133.792 6.03818 137.288 10.3475 137.288H15.2541C15.2541 131.672 19.8074 127.118 25.4236 127.118C31.0398 127.118 35.5932 131.672 35.5932 137.288H71.1865C71.1865 131.672 75.7398 127.118 81.3561 127.118C86.9723 127.118 91.5256 131.672 91.5256 137.288H96.4322C100.742 137.288 104.237 133.792 104.237 129.483V114.407H2.54248Z" fill="#5DA3EA"/>
<path d="M2.54248 99.1526V114.407H94.068C94.068 109.007 94.012 103.948 93.9103 99.1526H2.54248Z" fill="#223E5B"/>
</svg>
